Coordinates
version=1
nRows=9
nColumns=24
inDegrees=yes

Units are S.I. units (second, meters, Newtons, ...)
Angles are in degrees.

endheader
time	pelvis_tilt	pelvis_list	pelvis_rotation	pelvis_tx	pelvis_ty	pelvis_tz	hip_flexion_r	hip_adduction_r	hip_rotation_r	knee_angle_r	ankle_angle_r	subtalar_angle_r	mtp_angle_r	hip_flexion_l	hip_adduction_l	hip_rotation_l	knee_angle_l	ankle_angle_l	subtalar_angle_l	mtp_angle_l	lumbar_extension	lumbar_bending	lumbar_rotation
      1.90500000	     26.10043935	     -2.87660559	      2.68334056	      0.47888590	      0.91901348	      0.02041560	    -28.69412021	      5.83016145	     14.09708373	      4.14320822	      0.30349436	    -11.29764131	     28.87631963	    -18.08397386	     -3.06895396	     -2.41843843	    -55.19882857	     -1.37134397	    -24.20659424	     22.86080340	    -29.57065984	      5.04185347	      6.07759917
      1.91000000	     26.16852386	     -2.68191241	      2.39720148	      0.48421026	      0.91942794	      0.02093151	    -29.36126362	      5.47998319	     14.54165460	      4.57141570	      0.27529361	    -11.60285386	     28.84459090	    -17.40936859	     -2.63597076	     -2.36998908	    -54.83046655	     -0.55322892	    -24.10671427	     22.84470297	    -29.70954613	      4.69049293	      6.27384661
      1.91500000	     26.21538712	     -2.56223286	      2.09749215	      0.48938584	      0.91972270	      0.02147080	    -29.99380676	      5.18017611	     15.23242723	      5.02000643	      0.11174516	    -12.28821373	     28.78019787	    -16.69751778	     -2.28063037	     -2.33186270	    -54.43679389	      0.31254409	    -23.83226894	     22.78533046	    -29.84205123	      4.40778283	      6.49626232
      1.92000000	     26.22357326	     -2.45926811	      1.78881224	      0.49457437	      0.91990290	      0.02200934	    -30.56854295	      4.89155836	     15.87038486	      5.44344294	     -0.08336081	    -13.04351289	     28.75199926	    -15.95932651	     -1.94629239	     -2.32361954	    -53.96268748	      1.12986514	    -23.65289777	     22.66280225	    -29.92913745	      4.13678146	      6.75599967
      1.92500000	     26.27630209	     -2.37088249	      1.44623488	      0.49963118	      0.92007991	      0.02255964	    -31.16149860	      4.58971177	     16.55355528	      5.82687007	     -0.19320058	    -13.68194572	     28.76031953	    -15.28924084	     -1.60691306	     -2.30737854	    -53.38932240	      1.83747264	    -23.44947134	     22.55668382	    -30.08062107	      3.86783432	      7.05284311
      1.93000000	     26.35638309	     -2.27883760	      1.07186612	      0.50462075	      0.92025066	      0.02313423	    -31.73820134	      4.27081846	     17.15201005	      6.11847075	     -0.10449610	    -13.99545112	     28.76330170	    -14.67844914	     -1.25095201	     -2.29386003	    -52.69935647	      2.36231079	    -23.32651609	     22.53899031	    -30.26730492	      3.57896215	      7.39979507
      1.93500000	     26.36949955	     -2.29225740	      0.70363373	      0.50947470	      0.92022944	      0.02371607	    -32.26135273	      4.03025187	     18.09700091	      6.51090955	     -0.44911120	    -15.19669419	     28.68898706	    -13.97243566	     -1.02986627	     -2.30023026	    -52.02702779	      3.09663527	    -22.99139394	     22.47468215	    -30.39926717	      3.39933293	      7.74874415
      1.94000000	     26.42727714	     -2.30553823	      0.30885849	      0.51427344	      0.92020996	      0.02429921	    -32.80028126	      3.77155818	     18.96014916	      6.83911172	     -0.61855136	    -16.08721195	     28.69876158	    -13.34698651	     -0.79963390	     -2.31364335	    -51.24260056	      3.62748604	    -22.83623861	     22.39282884	    -30.58434299	      3.20740446	      8.14200882
      1.94500000	     26.49025222	     -2.36026609	     -0.10367958	      0.51897735	      0.92014170	      0.02489652	    -33.31562840	      3.53669774	     19.85959196	      7.12509131	     -0.76453501	    -16.96628259	     28.70853265	    -12.74307990	     -0.61957584	     -2.33769939	    -50.39036786	      4.11084230	    -22.66757311	     22.34239365	    -30.78770252	      3.04766931	      8.56778293
